<?xml version="1.0" encoding="utf-8" ?>
<svg baseProfile="tiny" height="100%" version="1.2" width="100%" xmlns="http://www.w3.org/2000/svg" xmlns:ev="http://www.w3.org/2001/xml-events" xmlns:xlink="http://www.w3.org/1999/xlink"><defs /><path d="M 104,73 L 104,74 L 106,76 L 107,76 L 107,75 L 105,73 Z" fill="black" stroke="none" /><path d="M 60,73 L 58,75 L 58,76 L 60,76 L 62,74 L 62,73 Z" fill="black" stroke="none" /><path d="M 108,62 L 108,63 L 109,64 L 111,64 L 112,63 L 112,62 Z" fill="black" stroke="none" /><path d="M 53,62 L 53,63 L 54,64 L 55,64 L 56,63 L 58,63 L 57,62 Z" fill="black" stroke="none" /><path d="M 106,49 L 104,51 L 104,53 L 105,53 L 107,51 L 107,50 Z" fill="black" stroke="none" /><path d="M 59,49 L 58,50 L 61,53 L 62,53 L 62,52 Z" fill="black" stroke="none" /><path d="M 79,44 L 78,45 L 75,45 L 73,47 L 72,47 L 66,53 L 66,54 L 65,55 L 65,57 L 64,58 L 64,68 L 65,69 L 65,70 L 66,71 L 66,72 L 67,73 L 67,74 L 71,78 L 71,79 L 72,80 L 72,81 L 73,82 L 73,96 L 76,99 L 76,101 L 77,102 L 77,103 L 78,103 L 79,104 L 87,104 L 89,102 L 89,101 L 90,100 L 90,99 L 91,98 L 91,97 L 92,96 L 92,84 L 93,83 L 93,81 L 94,80 L 94,79 L 97,76 L 97,75 L 99,73 L 99,72 L 100,71 L 100,70 L 101,69 L 101,65 L 102,64 L 102,62 L 101,61 L 101,57 L 100,56 L 100,55 L 99,54 L 99,53 L 98,52 L 98,51 L 95,48 L 94,48 L 92,46 L 91,46 L 90,45 L 88,45 L 87,44 Z" fill="black" stroke="none" /></svg>